<svg width="84" height="50" viewBox="0 0 84 50" fill="none" xmlns="http://www.w3.org/2000/svg">
<g filter="url(#filter0_d_4005_407)">
<path d="M19.2754 32.1797L19.7324 32.8125L19.3809 32.1094C19.1113 31.6055 18.8652 31.0195 18.6426 30.3516C18.4199 29.6836 18.2676 28.7578 18.1855 27.5742C18.1387 26.7773 18.1445 25.875 18.2031 24.8672C18.2383 23.9883 18.332 23.0859 18.4844 22.1602C18.6016 22.0781 18.7129 22.0078 18.8184 21.9492C19.0059 21.832 19.1875 21.7559 19.3633 21.7207C19.5391 21.6738 19.7441 21.6621 19.9785 21.6855C20.4941 21.7676 21.0977 21.9199 21.7891 22.1426V22.0898L21.8242 22.0195C21.1211 21.7852 20.5117 21.6328 19.9961 21.5625C19.75 21.5273 19.5273 21.5332 19.3281 21.5801C19.1406 21.627 18.9473 21.709 18.748 21.8262C18.4316 22.0137 18.0918 22.2422 17.7285 22.5117C17.6113 22.5938 17.5 22.6758 17.3945 22.7578L17.3418 22.793C17.0137 23.0391 16.7148 23.291 16.4453 23.5488C15.8125 24.1934 15.3027 24.8496 14.916 25.5176L14.5645 23.7246L17.6406 16.7109L24.3906 12.2637L26.6406 13.1953L27.0977 14.8828C26.6055 15.6914 26.1309 16.5469 25.6738 17.4492C25.2168 18.3398 24.8184 19.3887 24.4785 20.5957C24.1152 21.8848 23.8574 23.3496 23.7051 24.9902C23.5645 26.502 23.5469 28.0957 23.6523 29.7715C23.793 31.4941 24.0449 33.2637 24.4082 35.0801C24.7715 36.8965 25.1758 38.7246 25.6211 40.5645L19.75 39.2988L10.873 26.1152L15.5488 37.5234C15.1504 38.1094 14.7344 38.584 14.3008 38.9473C13.8555 39.3105 13.3574 39.3516 12.8066 39.0703C12.4551 38.8594 12.0742 38.5254 11.6641 38.0684C11.2539 37.6113 10.8262 37.1074 10.3809 36.5566C9.79492 35.8066 9.20312 35.1211 8.60547 34.5C7.85547 33.7734 7.11719 33.2227 6.39062 32.8477C5.67578 32.4844 4.9668 32.1797 4.26367 31.9336L5.23047 29.2969C5.61719 29.4961 5.99219 29.6953 6.35547 29.8945C6.74219 30.1055 7.11133 30.3281 7.46289 30.5625C7.70898 30.7383 7.94922 30.9199 8.18359 31.1074C8.76953 31.5762 9.34375 32.1094 9.90625 32.707C10.457 33.3516 10.9961 34.0605 11.5234 34.834L11.6289 34.7637C11.1016 33.9902 10.5625 33.2754 10.0117 32.6191C9.85938 32.4434 9.70117 32.2793 9.53711 32.127L2.24219 17.9414L7.14648 15.6562L19.2754 32.1797ZM34.6035 25.2715C33.9121 26.0918 33.1797 27.1582 32.4062 28.4707C32.1133 28.9863 31.8145 29.5371 31.5098 30.123C31.2051 30.709 30.8945 31.3242 30.5781 31.9688L28.7676 32.25L28.7852 32.373L30.5254 32.1094L30.5078 32.127L31.1055 32.0215L33.918 31.5293L35.957 31.582L32.0195 36.416C30.918 36.6738 29.957 37.0254 29.1367 37.4707C28.7383 37.7051 28.3984 37.9746 28.1172 38.2793C27.8359 38.584 27.5723 38.8887 27.3262 39.1934L23.6523 37.8574L22.5977 35.748C24.0859 33.041 25.4219 30.627 26.6055 28.5059C27.168 27.4863 27.6777 26.5723 28.1348 25.7637C28.5918 24.9551 29.0312 24.1875 29.4531 23.4609C29.5117 23.4492 29.5703 23.4434 29.6289 23.4434C30.0039 23.4316 30.3262 23.4492 30.5957 23.4961C30.8418 23.543 31.0293 23.625 31.1582 23.7422C31.2988 23.8594 31.416 23.9824 31.5098 24.1113V24.1289L31.5625 24.0762L31.5977 24.041C31.5039 23.9004 31.3809 23.7656 31.2285 23.6367C31.0879 23.5078 30.8828 23.4199 30.6133 23.373C30.3438 23.3262 30.0098 23.3086 29.6113 23.3203C29.2363 23.3438 28.832 23.373 28.3984 23.4082L26.8164 23.4961L27.3789 21.8965L34.252 20.1211L36.6074 23.1445C35.9512 23.7656 35.2832 24.4746 34.6035 25.2715ZM36.3086 13.1074C37.2812 13.9746 37.8496 15.0645 38.0137 16.377C38.1074 17.4668 37.873 18.4102 37.3105 19.207C36.748 20.0156 35.9629 20.5547 34.9551 20.8242L34.3047 19.9805L31.9316 20.5957C31.041 20.2207 30.2969 19.6582 29.6992 18.9082C29.125 18.1582 28.7852 17.3086 28.6797 16.3594C28.6562 16.207 28.6445 16.0488 28.6445 15.8848C28.6445 14.8066 28.9961 13.8809 29.6992 13.1074C30.3789 12.3574 31.2754 11.918 32.3887 11.7891C32.541 11.7773 32.6992 11.7715 32.8633 11.7715C34.1523 11.7715 35.3008 12.2168 36.3086 13.1074ZM46.0117 22.6699C46.3281 21.873 46.5332 21.2285 46.627 20.7363C46.6621 20.502 46.6504 20.332 46.5918 20.2266C46.5449 20.1094 46.4805 20.0156 46.3984 19.9453V19.9277L46.3105 20.0332C46.3691 20.0918 46.4219 20.1738 46.4688 20.2793C46.5156 20.373 46.5273 20.5195 46.5039 20.7188C46.4453 21.0469 46.3164 21.4688 46.1172 21.9844L46.0996 22.002C45.127 22.4238 44.207 22.8516 43.3398 23.2852C42.4844 23.7188 41.7871 24.1758 41.248 24.6562C41.166 24.7266 41.0898 24.8027 41.0195 24.8848C40.6211 25.3066 40.416 25.7461 40.4043 26.2031C40.3926 26.6602 40.6094 27.1348 41.0547 27.627C41.125 27.709 41.207 27.791 41.3008 27.873C41.957 28.4473 42.8652 29.0332 44.0254 29.6309C45.1855 30.2168 46.4395 30.8086 47.7871 31.4062L47.9102 31.4766L46.6094 26.9414L47.9277 26.3086L55.9258 39.5449L53.1309 41.4434C49.6621 39.1699 46.4277 36.9727 43.4277 34.8516C40.4043 32.7422 38.0898 30.8789 36.4844 29.2617C35.0078 27.7148 34.3105 26.4141 34.3926 25.3594C34.4746 24.3164 35.043 23.3262 36.0977 22.3887C37.0469 21.4746 38.2188 20.5605 39.6133 19.6465C41.2422 18.5684 42.9355 17.5723 44.6934 16.6582C46.2754 15.8262 47.8223 15.0703 49.334 14.3906C50.834 13.7227 52.3164 13.084 53.7812 12.4746L54.3438 14.0391C53.6523 15.0586 52.9902 16.0547 52.3574 17.0273C51.7012 18.0234 51.1211 18.9785 50.6172 19.8926C49.7031 21.6504 48.9883 23.2969 48.4727 24.832L44.3418 27.5918L46.0117 22.6699ZM65.5762 31.4062L68.582 32.6719C69.0273 34.2422 69.4199 35.7363 69.7598 37.1543C70.0996 38.5723 70.2812 39.7734 70.3047 40.7578C70.3164 41.4023 70.2285 41.9062 70.041 42.2695C69.9355 42.4453 69.8125 42.5801 69.6719 42.6738C69.5195 42.7676 69.3379 42.8203 69.127 42.832C68.7754 42.832 68.3477 42.6973 67.8438 42.4277C67 41.959 65.9863 41.168 64.8027 40.0547C63.5137 38.8359 62.1484 37.3887 60.707 35.7129C59.3242 34.1074 58.0352 32.502 56.8398 30.8965C55.5977 29.2559 54.6602 27.9082 54.0273 26.8535C53.4648 25.8926 53.2363 25.2773 53.3418 25.0078C53.459 24.75 53.8164 24.668 54.4141 24.7617C55.7734 24.9727 57.5547 25.4062 59.7578 26.0625L60.1445 26.168L59.793 25.9395C58.0469 24.8262 56.6875 23.9473 55.7148 23.3027C55.3164 23.0332 55.0762 22.8457 54.9941 22.7402C54.959 22.6934 54.9414 22.6523 54.9414 22.6172C54.9414 22.5703 54.959 22.5234 54.9941 22.4766C55.0645 22.3477 55.1758 22.1895 55.3281 22.002C55.4688 21.8262 55.627 21.6328 55.8027 21.4219L58.457 21.2461V21.123L55.9082 21.2988L55.9258 21.2812L50.4941 21.7207L51.7246 17.3613C52.5684 17.3613 53.4414 17.3379 54.3438 17.291C55.2812 17.2441 56.3242 17.0977 57.4727 16.8516C59.875 16.2539 62.5645 15.4102 65.541 14.3203L65.752 14.7246L66.877 16.9922L66.9824 16.9395L66.332 15.6035C66.6016 15.2988 66.8711 14.9941 67.1406 14.6895C67.3867 14.4199 67.6621 14.1152 67.9668 13.7754C67.9668 13.7637 67.9727 13.7578 67.9844 13.7578L72.9941 13.5293L73.2051 17.6953C72.4316 18.0469 71.6582 18.4277 70.8848 18.8379C70.0996 19.2598 69.3145 19.7812 68.5293 20.4023C67.7559 21.0352 66.9824 21.7676 66.209 22.5996C65.4355 23.4199 64.6621 24.2754 63.8887 25.166C63.3145 25.0488 62.8223 24.8613 62.4121 24.6035C62.2129 24.4746 62.0664 24.2988 61.9727 24.0762C61.8672 23.8418 61.832 23.5195 61.8672 23.1094C61.8906 22.6406 62.0371 22.043 62.3066 21.3164C62.5293 20.7305 62.8809 20.0742 63.3613 19.3477C63.4785 19.1602 63.6016 18.9785 63.7305 18.8027C63.8594 18.6152 64 18.4219 64.1523 18.2227L64.9258 17.2031L59.4766 23.0918C59.4766 23.0918 59.4824 23.0977 59.4941 23.1094C59.4941 23.1211 59.5 23.1328 59.5117 23.1445C59.6875 23.4375 59.9219 23.7363 60.2148 24.041C60.5195 24.334 60.9824 24.6445 61.6035 24.9727C62.2598 25.3125 63.0859 25.6582 64.082 26.0098C65.0547 26.3613 66.0859 26.7246 67.1758 27.0996L68.0195 28.9629L67.7031 29.7539L58.0527 27.293C58.4277 27.6211 58.7969 27.9434 59.1602 28.2598C61.2344 30.0762 63.3086 31.8926 65.3828 33.709C65.3711 34.3066 65.3535 34.7695 65.3301 35.0977C65.3184 35.332 65.3008 35.4668 65.2773 35.502C65.2773 35.502 65.2539 35.4902 65.207 35.4668C65.043 35.3613 64.8262 35.2031 64.5566 34.9922L64.4863 35.0977C64.7559 35.2969 64.9785 35.4551 65.1543 35.5723C65.2012 35.6074 65.2422 35.6309 65.2773 35.6426C65.3242 35.6426 65.3594 35.6191 65.3828 35.5723C65.418 35.5137 65.4473 35.3613 65.4707 35.1152C65.4824 34.8457 65.4941 34.4883 65.5059 34.043C65.5176 33.5977 65.5293 33.1172 65.541 32.6016L65.5762 31.4062Z" fill="#E1E1E1"/>
</g>
<path d="M79.5377 10C80.2131 10 80.8166 10.1495 81.3481 10.4484C81.8907 10.7474 82.3114 11.1682 82.6104 11.7107C82.9093 12.2422 83.0588 12.8512 83.0588 13.5377C83.0588 14.2131 82.9093 14.8166 82.6104 15.3481C82.3114 15.8796 81.8907 16.3003 81.3481 16.6104C80.8166 16.9093 80.2131 17.0588 79.5377 17.0588C78.8623 17.0588 78.2533 16.9093 77.7107 16.6104C77.1792 16.3003 76.7585 15.8796 76.4484 15.3481C76.1495 14.8166 76 14.2131 76 13.5377C76 12.8512 76.1495 12.2422 76.4484 11.7107C76.7585 11.1682 77.1792 10.7474 77.7107 10.4484C78.2533 10.1495 78.8623 10 79.5377 10ZM79.5377 16.2118C80.3349 16.2118 80.9716 15.9682 81.4478 15.481C81.9349 14.9827 82.1785 14.3349 82.1785 13.5377C82.1785 12.7294 81.9349 12.0817 81.4478 11.5945C80.9716 11.0962 80.3349 10.8471 79.5377 10.8471C78.7405 10.8471 78.1038 11.0962 77.6277 11.5945C77.1516 12.0817 76.9135 12.7294 76.9135 13.5377C76.9135 14.346 77.1516 14.9938 77.6277 15.481C78.1038 15.9682 78.7405 16.2118 79.5377 16.2118ZM81.099 12.8734C81.099 13.117 81.0381 13.3273 80.9163 13.5045C80.8055 13.6817 80.645 13.8145 80.4346 13.9031L81.2983 15.2651H80.0028L79.2886 14.0194H79.1889V15.2651H78.0761V11.7107H79.8201C80.2076 11.7107 80.5176 11.8215 80.7502 12.0429C80.9827 12.2533 81.099 12.5301 81.099 12.8734ZM79.1723 13.1889H79.7038C79.7813 13.1889 79.8478 13.1668 79.9031 13.1225C79.9585 13.0782 79.9862 13.0118 79.9862 12.9232C79.9862 12.7571 79.892 12.674 79.7038 12.674H79.1723V13.1889Z" fill="white"/>
<defs>
<filter id="filter0_d_4005_407" x="0.242188" y="11.7715" width="74.9629" height="38.0605" filterUnits="userSpaceOnUse" color-interpolation-filters="sRGB">
<feFlood flood-opacity="0" result="BackgroundImageFix"/>
<feColorMatrix in="SourceAlpha" type="matrix" values="0 0 0 0 0 0 0 0 0 0 0 0 0 0 0 0 0 0 127 0" result="hardAlpha"/>
<feOffset dy="5"/>
<feGaussianBlur stdDeviation="1"/>
<feComposite in2="hardAlpha" operator="out"/>
<feColorMatrix type="matrix" values="0 0 0 0 0 0 0 0 0 0 0 0 0 0 0 0 0 0 0.15 0"/>
<feBlend mode="normal" in2="BackgroundImageFix" result="effect1_dropShadow_4005_407"/>
<feBlend mode="normal" in="SourceGraphic" in2="effect1_dropShadow_4005_407" result="shape"/>
</filter>
</defs>
</svg>
